#!OML:ASF F:\VICON\USERDATA\INSTALL\rory3\rory3.ASF
:FULLY-SPECIFIED
:DEGREES
137
root 1.542173826071295 17.877955653535427 50.70229209438959 -3.223662388413592 -0.9211740787612456 -2.980168657687503
lfemur -2.411225719674942 -2.872119254538098 -18.253035155307405
ltibia 49.62509198421964
lfoot -6.751867911041324 -0.18478067560705602
ltoes -6.296339583491719
rfemur -18.747118362977726 2.10280071629307 25.802138377619993
rtibia 34.00923406955269
rfoot -12.380403449726579 -8.460429344932704
rtoes 2.2280292781850575
lowerback 1.0 -1.193286687242491 0.7836612640385159
upperback 0.013023764606391042 -0.9091285605806168 2.1692242360878
thorax -5.3098260491971745 -0.43821421753284084 2.436846824745283
lowerneck -16.357297337650785 -2.9117978047928377 -1.2801319377052016
upperneck 22.71900197660085 -3.5980946950986183 -0.160575452178844
head 9.986800437418832 -1.818526397295707 -0.26667482302711526
lclavicle -1.8494061220655243e-15 -1.4471915560484354e-16
lhumerus -28.020798602213446 0.11736438265792914 82.0639229879801
lradius 23.04868798286204
lwrist 5.613075905970656
lhand -27.001154331806134 23.795581744312226
lfingers nan
lthumb -0.3354109828203738 53.91746497585504
rclavicle -1.9244248387349236e-15 -1.9658825620512952e-16
rhumerus -30.522134396486337 -24.162557945814576 -75.89163705490677
rradius 30.806065581664935
rwrist 2.2709574634202556
rhand -17.971612840453048 1.0
rfingers nan
rthumb 8.40710080445227 -7.833192193809693
138
root 1.5609661343729109 17.891991041076547 51.9860296062979 -3.0884619914199933 -0.8236394087144427 -3.3506631963703613
lfemur -4.354219438045625 -2.552859909908781 -17.39163607024306
ltibia 51.71733082555008
lfoot -8.118453857485083 -0.060734287394514475
ltoes -6.911487483133394
rfemur -17.77904566694223 2.338515888936533 26.12008054670678
rtibia 33.81268801251339
rfoot -12.5998258754175 -8.901093792198921
rtoes 2.4435730838394196
lowerback 1.0 -1.065581758174355 1.1852513524275186
upperback 0.005002280788289237 -0.6708770830929338 2.2013671435768907
thorax -5.337695987430038 -0.3126676106533255 2.196128961122061
lowerneck -16.3483057804261 -2.963685114903925 -1.2224481117111046
upperneck 22.54164901027622 -3.69096700680747 -0.16343537523998064
head 9.930530630690154 -1.852063848896691 -0.2918431667995811
lclavicle -1.845638593893018e-15 -1.4285004132042623e-16
lhumerus -28.509614020328137 0.4304525035492013 82.14941274639185
lradius 22.649897268689365
lwrist 5.762297796066095
lhand -27.076853025318112 23.71291567705852
lfingers nan
lthumb -0.39137035036976886 53.88957302445237
rclavicle -1.9202159795976583e-15 -1.9586550815324042e-16
rhumerus -30.672887670115266 -24.17396822069853 -75.65432518526558
rradius 30.853977031721676
rwrist 2.0685900488595292
rhand -17.976897632673634 1.0
rfingers nan
rthumb 8.400013165926698 -7.874665878759805
139
root 1.4988851826672709 17.87758033896118 49.131004183589255 -3.247118858421636 -1.0006862683889843 -4.450202445777003
lfemur -6.594172055109577 -2.177402765056057 -15.972043170220571
ltibia 53.31084606763673
lfoot -8.736602152200595 0.8046946383882778
ltoes -6.710964295120327
rfemur -16.684941979370052 2.7794300447643643 27.274112741746325
rtibia 33.79738905388857
rfoot -12.758074444592443 -9.240381461209715
rtoes 2.4202241632726285
lowerback 1.0 -0.7963208144998102 1.9877580519452414
upperback -0.010272999476766131 -0.15715911978498465 2.294616529572468
thorax -5.421053757842412 -0.06079705376860434 1.7574324433549018
lowerneck -16.308412464423636 -3.0230690773914928 -1.1721156325797772
upperneck 22.413117860352852 -3.7969437859827604 -0.1600914178825557
head 9.894868714464746 -1.8896877128047889 -0.31642921705413574
lclavicle -1.8410516526221716e-15 -1.4042674280633544e-16
lhumerus -28.98992020957844 0.7625024705097285 82.21685424311312
lradius 22.3168399520546
lwrist 6.068291985835357
lhand -27.24821451008356 23.607590088612977
lfingers nan
lthumb -0.5981448823777243 53.748829970739486
rclavicle -1.9153010636489593e-15 -1.948555895836607e-16
rhumerus -30.729306990131402 -24.2375118998246 -75.27117747640321
rradius 30.92306868218614
rwrist 1.7126578483651569
rhand -17.98399547153316 1.0
rfingers nan
rthumb 8.389794990509925 -7.901291295567369
140
root 1.5019686828808434 17.88657878913628 50.73706497039729 -3.1535550704055306 -0.7124912940343042 -4.6403838467130445
lfemur -8.8365411145984 -2.047748047781203 -15.586524038626788
ltibia 54.192607508840815
lfoot -9.223228499114965 1.9249383615566402
ltoes -8.170977423077858
rfemur -15.278632848146335 2.9143961519775194 27.46673624304473
rtibia 33.732466793294016
rfoot -12.758843000808135 -9.479001164751805
rtoes 2.252291057549888
lowerback 1.0 -0.6596733635714876 2.304951358438964
upperback -0.024317030540449425 0.07615656511493685 2.2911031802237325
thorax -5.457138220195531 0.06878677875702718 1.4430985265629648
lowerneck -16.253807085997344 -3.08299288066593 -1.145061551280101
upperneck 22.36455770622834 -3.904733736341314 -0.14876170161292834
head 9.887372703648147 -1.9275354068681203 -0.33642976692716764
lclavicle -1.8357427714240245e-15 -1.3812525476948306e-16
lhumerus -29.45841054011315 1.0772489415620559 82.26579142111885
lradius 22.067495795206188
lwrist 6.381282559845195
lhand -27.401504239924744 23.57102616261517
lfingers nan
lthumb -0.7362067832723826 53.79287124839255
rclavicle -1.9060073296736385e-15 -1.923977566547453e-16
rhumerus -30.730263943916018 -24.338494491528532 -74.8069799760281
rradius 31.002745109776747
rwrist 1.7533213118893851
rhand -17.99559531601172 1.0
rfingers nan
rthumb 8.384958239753578 -7.909293179568264
